<?xml version="1.0" encoding="UTF-8"?>
<svg height="16px" viewBox="0 0 16 16" width="16px" xmlns="http://www.w3.org/2000/svg">
    <g fill="#ffffff">
        <path d="m 10.351562 2.574219 l -3.226562 3.226562 l -1.476562 -1.476562 l -0.863282 0.863281 l 2.339844 2.335938 l 4.089844 -4.089844 z m 0 0"/>
        <path d="m 4.15625 0.339844 c -0.511719 0 -0.925781 0.511718 -0.925781 1.152344 v 13.019531 c 0 0.636719 0.414062 1.148437 0.925781 1.148437 h 7.6875 c 0.511719 0 0.925781 -0.511718 0.925781 -1.148437 v -13.019531 c 0 -0.640626 -0.414062 -1.152344 -0.925781 -1.152344 z m 0.382812 0.363281 h 6.921876 c 0.460937 0 0.835937 0.488281 0.835937 1.09375 v 12.40625 c 0 0.605469 -0.375 1.097656 -0.835937 1.097656 h -6.921876 c -0.460937 0 -0.832031 -0.492187 -0.832031 -1.097656 v -12.40625 c 0 -0.605469 0.371094 -1.09375 0.832031 -1.09375 z m 0 0"/>
        <path d="m 10.351562 8.785156 l -3.226562 3.226563 l -1.476562 -1.472657 l -0.863282 0.863282 l 2.339844 2.335937 l 4.089844 -4.089843 z m 0 0"/>
    </g>
</svg>
